<?xml version="1.0" encoding="iso-8859-1"?>
<!-- Uploaded to: SVG Repo, www.svgrepo.com, Generator: SVG Repo Mixer Tools -->
<svg fill="#ffffff" height="800px" width="800px" version="1.1" id="Layer_1" xmlns="http://www.w3.org/2000/svg" xmlns:xlink="http://www.w3.org/1999/xlink"
	 viewBox="0 0 512.005 512.005" xml:space="preserve">
<g>
	<g>
		<path d="M21.144,2.971c6.485-3.84,14.507-3.968,21.141-0.32l416.384,227.006V21.338c0-11.776,9.557-21.333,21.333-21.333
			s21.333,9.557,21.333,21.338v469.333c0,11.776-9.557,21.333-21.333,21.333s-21.333-9.557-21.333-21.333V280.346L42.285,509.36
			c-3.221,1.771-6.741,2.645-10.283,2.645c-3.755,0-7.531-1.003-10.859-2.965c-6.507-3.84-10.475-10.837-10.475-18.368V21.338
			C10.669,13.786,14.637,6.81,21.144,2.971z"/>
	</g>
</g>
</svg>
