<svg width="32" height="32" viewBox="0 0 32 32" fill="none" xmlns="http://www.w3.org/2000/svg">
    <path d="M22.25 4.49994C19.7387 4.49994 17.51 5.49119 16 7.19494C14.49 5.49119 12.2613 4.49994 9.75 4.49994C7.56278 4.50259 5.46589 5.37263 3.91929 6.91923C2.37269 8.46583 1.50265 10.5627 1.5 12.7499C1.5 21.7924 14.7262 29.0174 15.2887 29.3212C15.5073 29.4389 15.7517 29.5005 16 29.5005C16.2483 29.5005 16.4927 29.4389 16.7113 29.3212C17.2738 29.0174 30.5 21.7924 30.5 12.7499C30.4974 10.5627 29.6273 8.46583 28.0807 6.91923C26.5341 5.37263 24.4372 4.50259 22.25 4.49994ZM21.5637 22.2949C19.8228 23.7722 17.9618 25.1018 16 26.2699C14.0382 25.1018 12.1772 23.7722 10.4362 22.2949C7.7275 19.9712 4.5 16.4274 4.5 12.7499C4.5 11.3576 5.05312 10.0222 6.03769 9.03763C7.02226 8.05306 8.35761 7.49994 9.75 7.49994C11.975 7.49994 13.8375 8.67494 14.6112 10.5674C14.7239 10.8433 14.9161 11.0794 15.1634 11.2456C15.4108 11.4118 15.702 11.5005 16 11.5005C16.298 11.5005 16.5892 11.4118 16.8366 11.2456C17.0839 11.0794 17.2761 10.8433 17.3888 10.5674C18.1625 8.67494 20.025 7.49994 22.25 7.49994C23.6424 7.49994 24.9777 8.05306 25.9623 9.03763C26.9469 10.0222 27.5 11.3576 27.5 12.7499C27.5 16.4274 24.2725 19.9712 21.5637 22.2949Z" fill="#ffffff"/>
</svg>
