<svg width="32" height="32" viewBox="0 0 32 32" fill="#ff0000" xmlns="http://www.w3.org/2000/svg">
    <path d="M30 12.7499C30 21.4999 17.0262 28.5824 16.4737 28.8749C16.3281 28.9533 16.1654 28.9943 16 28.9943C15.8346 28.9943 15.6719 28.9533 15.5262 28.8749C14.9737 28.5824 2 21.4999 2 12.7499C2.00232 10.6952 2.81958 8.72532 4.27248 7.27242C5.72539 5.81951 7.69528 5.00225 9.75 4.99994C12.3312 4.99994 14.5912 6.10994 16 7.98619C17.4088 6.10994 19.6688 4.99994 22.25 4.99994C24.3047 5.00225 26.2746 5.81951 27.7275 7.27242C29.1804 8.72532 29.9977 10.6952 30 12.7499Z" fill="#ff0000"/>
</svg>
