<svg width="50" height="50" viewBox="0 0 45 45" fill="#ffffff" xmlns="http://www.w3.org/2000/svg">
    <path d="M27.3438 25C27.3438 25.4635 27.2063 25.9167 26.9488 26.3021C26.6912 26.6875 26.3252 26.9879 25.8969 27.1653C25.4687 27.3427 24.9974 27.3891 24.5428 27.2987C24.0881 27.2083 23.6705 26.9851 23.3427 26.6573C23.0149 26.3295 22.7917 25.9119 22.7013 25.4572C22.6109 25.0026 22.6573 24.5313 22.8347 24.1031C23.0121 23.6748 23.3125 23.3088 23.6979 23.0512C24.0833 22.7937 24.5365 22.6562 25 22.6562C25.6216 22.6563 26.2177 22.9032 26.6573 23.3427C27.0968 23.7823 27.3438 24.3784 27.3438 25ZM38.2813 22.6562C37.8177 22.6562 37.3646 22.7937 36.9791 23.0512C36.5937 23.3088 36.2933 23.6748 36.1159 24.1031C35.9385 24.5313 35.8921 25.0026 35.9825 25.4572C36.073 25.9119 36.2962 26.3295 36.624 26.6573C36.9518 26.9851 37.3694 27.2083 37.824 27.2987C38.2787 27.3891 38.7499 27.3427 39.1782 27.1653C39.6064 26.9879 39.9725 26.6875 40.23 26.3021C40.4875 25.9167 40.625 25.4635 40.625 25C40.625 24.3784 40.3781 23.7823 39.9385 23.3427C39.499 22.9032 38.9029 22.6563 38.2813 22.6562ZM11.7188 22.6562C11.2552 22.6562 10.8021 22.7937 10.4166 23.0512C10.0312 23.3088 9.7308 23.6748 9.55341 24.1031C9.37602 24.5313 9.3296 25.0026 9.42004 25.4572C9.51047 25.9119 9.73369 26.3295 10.0615 26.6573C10.3892 26.9851 10.8069 27.2083 11.2615 27.2987C11.7162 27.3891 12.1874 27.3427 12.6157 27.1653C13.0439 26.9879 13.41 26.6875 13.6675 26.3021C13.925 25.9167 14.0625 25.4635 14.0625 25C14.0625 24.3784 13.8156 23.7823 13.376 23.3427C12.9365 22.9032 12.3404 22.6563 11.7188 22.6562Z" fill="#ffffff"/>
</svg>
